<svg id="Capa_1" enable-background="new 0 0 511 511" height="24" viewBox="0 0 511 511" width="24" xmlns="http://www.w3.org/2000/svg"><g><circle cx="255.5" cy="255.5" fill="#ffc265" r="248"/><path d="m255.5 476.5c-132.437 0-240.619-103.812-247.631-234.5-.24 4.47-.369 8.97-.369 13.5 0 136.967 111.033 248 248 248s248-111.033 248-248c0-4.53-.13-9.03-.369-13.5-7.012 130.688-115.195 234.5-247.631 234.5z" fill="#ffb541"/><circle cx="255.5" cy="255.5" fill="#ffe9c8" r="207.79"/><path d="m255.5 436.29c-110.222 0-200.384-85.825-207.342-194.29-.286 4.465-.448 8.963-.448 13.5 0 114.759 93.031 207.79 207.79 207.79s207.79-93.031 207.79-207.79c0-4.537-.162-9.035-.448-13.5-6.958 108.465-97.12 194.29-207.342 194.29z" fill="#ffdca7"/><path d="m216.106 350.988 130.295-82.52c9.516-6.027 9.516-19.909 0-25.936l-130.295-82.52c-10.22-6.473-23.563.87-23.563 12.968v165.04c-.001 12.097 13.342 19.441 23.563 12.968z" fill="#ff4755"/><path d="m346.4 250.468-130.295 82.52c-10.22 6.473-23.563-.871-23.563-12.968v18c0 12.098 13.343 19.441 23.563 12.968l130.295-82.52c7.789-4.933 9.193-15.125 4.23-21.968-1.099 1.517-2.503 2.875-4.23 3.968z" fill="#fc2b3a"/><g><path d="m204.107 166.102c1.223-.672 4.447-1.995 7.986.245l56.934 36.059c3.501 2.219 8.133 1.176 10.349-2.323s1.176-8.133-2.323-10.349l-56.934-36.059c-7.145-4.525-15.834-4.792-23.244-.715-7.409 4.078-11.832 11.562-11.832 20.019v165.04c0 8.457 4.424 15.941 11.833 20.019 3.494 1.924 7.271 2.88 11.038 2.88 4.221 0 8.43-1.202 12.205-3.594l130.295-82.52c6.652-4.214 10.624-11.431 10.624-19.306 0-7.874-3.972-15.09-10.624-19.303l-47.996-30.398c-3.499-2.217-8.133-1.174-10.349 2.323-2.216 3.499-1.176 8.133 2.323 10.349l47.996 30.397c2.319 1.469 3.649 3.886 3.649 6.632s-1.33 5.163-3.649 6.633l-130.295 82.52c-3.538 2.24-6.762.918-7.985.245-1.222-.673-4.065-2.689-4.065-6.878v-165.038c-.001-4.188 2.842-6.205 4.064-6.878z"/><path d="m436.166 74.834c-48.258-48.258-112.419-74.834-180.666-74.834s-132.408 26.576-180.666 74.834c-48.257 48.258-74.834 112.419-74.834 180.666s26.577 132.408 74.834 180.666c48.258 48.258 112.419 74.834 180.666 74.834 55.88 0 108.953-17.711 153.481-51.218 3.31-2.491 3.974-7.193 1.483-10.503-2.49-3.31-7.192-3.975-10.502-1.483-41.907 31.535-91.862 48.204-144.462 48.204-64.24 0-124.635-25.017-170.059-70.44-45.425-45.425-70.441-105.82-70.441-170.06s25.016-124.635 70.441-170.06c45.424-45.423 105.819-70.44 170.059-70.44s124.635 25.017 170.059 70.44c45.425 45.425 70.441 105.82 70.441 170.06 0 33.317-6.682 65.568-19.861 95.859-12.732 29.264-30.909 55.364-54.025 77.576-2.986 2.87-3.081 7.618-.211 10.605 2.869 2.986 7.617 3.082 10.604.212 24.551-23.593 43.858-51.318 57.385-82.408 14.007-32.191 21.108-66.455 21.108-101.844 0-68.247-26.577-132.408-74.834-180.666z"/><path d="m113.873 103.267c-2.929-2.928-7.678-2.928-10.606 0-40.663 40.663-63.057 94.727-63.057 152.233s22.394 111.569 63.057 152.233c40.663 40.663 94.727 63.057 152.233 63.057s111.57-22.393 152.233-63.057 63.057-94.728 63.057-152.233-22.394-111.57-63.057-152.233c-36.828-36.828-85.695-59.046-137.599-62.562-51.407-3.482-102.318 11.505-143.367 42.199-3.317 2.481-3.996 7.181-1.515 10.498 2.48 3.317 7.181 3.994 10.497 1.516 38.178-28.549 85.539-42.489 133.371-39.247 48.284 3.271 93.744 23.94 128.006 58.203 78.093 78.093 78.093 205.159 0 283.252-37.83 37.83-88.126 58.664-141.626 58.664s-103.796-20.834-141.626-58.664c-78.093-78.093-78.093-205.159 0-283.252 2.929-2.93 2.929-7.678-.001-10.607z"/></g></g></svg>