<?xml version="1.0" encoding="UTF-8" standalone="no"?>
<!DOCTYPE svg PUBLIC "-//W3C//DTD SVG 1.1//EN" "http://www.w3.org/Graphics/SVG/1.1/DTD/svg11.dtd">
<!-- Generated by Microsoft Visio, SVG Export Drawing1.svg Page-1 -->
<svg xmlns="http://www.w3.org/2000/svg" xmlns:xlink="http://www.w3.org/1999/xlink" xmlns:ev="http://www.w3.org/2001/xml-events"
                              xmlns:v="http://schemas.microsoft.com/visio/2003/SVGExtensions/" width="40" height="40"
                              viewBox="0 0 93.9272 117.779" xml:space="preserve" color-interpolation-filters="sRGB" class="st4">
               <v:documentProperties v:langID="1036" v:metric="true" v:viewMarkup="false"/>
 
               <style type="text/css">
               <![CDATA[
                              .st1 {fill:#1a1918;stroke:none;stroke-linecap:butt;stroke-width:0.75}
                              .st2 {fill:#1a1918;stroke:none;stroke-linecap:butt;stroke-width:0.421875}
                              .st3 {fill:#ffffff;stroke:none;stroke-linecap:butt;stroke-width:0.421875}
                              .st4 {fill:none;fill-rule:evenodd;font-size:12px;overflow:visible;stroke-linecap:square;stroke-miterlimit:3}
               ]]>
               </style>
 
               <g v:mID="0" v:index="1" v:groupContext="foregroundPage">
                              <title>Page-1</title>
                              <v:pageProperties v:drawingScale="0.0393701" v:pageScale="0.0393701" v:drawingUnits="24" v:shadowOffsetX="8.50394"
                                                           v:shadowOffsetY="-8.50394"/>
                              <g id="group87-1" transform="translate(0.75,-0.75)" v:mID="87" v:groupContext="group">
                                            <title>Sheet.87</title>
                                            <g id="shape44-2" v:mID="44" v:groupContext="shape" transform="translate(8.94456,-20.8707)">
                                                           <title>Sheet.44</title>
                                                           <path d="M2.98 111.82 C1.33 111.82 0 113.15 0 114.8 C0 116.44 1.33 117.78 2.98 117.78 C1.89 117.78 0.99 116.89 0.99
                                                                                                       115.79 C0.99 114.69 1.88 113.8 2.98 113.8 C4.08 113.8 4.97 114.69 4.97 115.79 C4.97 116.89 4.08 117.78
                                                                                                       2.98 117.78 C4.63 117.78 5.96 116.44 5.96 114.8 C5.96 113.15 4.63 111.82 2.98 111.82 Z" class="st1"/>
                                            </g>
                                            <g id="shape45-4" v:mID="45" v:groupContext="shape">
                                                           <title>Sheet.45</title>
                                                           <path d="M80.49 78.07 C80.49 78.07 80.5 78.07 80.5 78.07 L80.5 9.45 C80.5 5.08 76.92 1.5 72.55 1.5 L7.95 1.5 C3.58
                                                                                                       1.5 0 5.08 0 9.45 L0 97.9 C0 102.27 3.58 105.85 7.95 105.85 L52.72 105.85 C52.72 105.85 52.72 105.85
                                                                                                       52.72 105.84 C56.07 112.89 63.23 117.78 71.56 117.78 C83.08 117.78 92.43 108.44 92.43 96.91 C92.43 88.58
                                                                                                       87.54 81.42 80.49 78.07 ZM7.95 102.87 C5.21 102.87 2.98 100.64 2.98 97.9 L2.98 80.5 C4.4 83.17 7.21
                                                                                                       84.98 10.44 84.98 L54.44 84.98 C54.68 84.64 54.93 84.31 55.19 83.99 L10.44 83.99 C6.33 83.99 2.98 80.65
                                                                                                       2.98 76.53 L2.98 9.45 C2.98 6.71 5.21 4.48 7.95 4.48 L72.55 4.48 C75.29 4.48 77.52 6.71 77.52 9.45 L77.52
                                                                                                       76.53 C77.52 76.66 77.51 76.78 77.5 76.91 C75.62 76.35 73.62 76.04 71.56 76.04 C60.03 76.04 50.69 85.38
                                                                                                       50.69 96.91 C50.69 98.98 51 100.98 51.56 102.87 L7.95 102.87 ZM71.56 114.8 C61.69 114.8 53.67 106.77
                                                                                                       53.67 96.91 C53.67 87.04 61.69 79.02 71.56 79.02 C81.42 79.02 89.45 87.04 89.45 96.91 C89.45 106.77
                                                                                                       81.42 114.8 71.56 114.8 Z" class="st1"/>
                                            </g>
                                            <g id="shape64-6" v:mID="64" v:groupContext="shape" transform="translate(17.8891,-89.4456)">
                                                           <title>Sheet.64</title>
                                                           <path d="M26.83 117.78 L2.98 117.78 L0 114.8 L26.83 114.8 L26.83 117.78 Z" class="st1"/>
                                            </g>
                                            <g id="shape65-8" v:mID="65" v:groupContext="shape" transform="translate(8.94456,-80.5011)">
                                                           <title>Sheet.65</title>
                                                           <path d="M41.74 117.78 L2.98 117.78 L0 114.8 L41.74 114.8 L41.74 117.78 Z" class="st1"/>
                                            </g>
                                            <g id="shape66-10" v:mID="66" v:groupContext="shape" transform="translate(17.8891,-71.5565)">
                                                           <title>Sheet.66</title>
                                                           <path d="M41.74 117.78 L2.98 117.78 L0 114.8 L41.74 114.8 L41.74 117.78 Z" class="st1"/>
                                            </g>
                                            <g id="shape67-12" v:mID="67" v:groupContext="shape" transform="translate(11.9261,-62.612)">
                                                           <title>Sheet.67</title>
                                                           <path d="M41.74 117.78 L2.98 117.78 L0 114.8 L41.74 114.8 L41.74 117.78 Z" class="st1"/>
                                            </g>
                                            <g id="shape68-14" v:mID="68" v:groupContext="shape" transform="translate(20.8707,-53.6674)">
                                                           <title>Sheet.68</title>
                                                           <path d="M23.85 117.78 L2.98 117.78 L0 114.8 L23.85 114.8 L23.85 117.78 Z" class="st1"/>
                                            </g>
                                            <g id="shape69-16" v:mID="69" v:groupContext="shape" transform="translate(44.4247,-47.7043)">
                                                           <title>Sheet.69</title>
                                                           <path d="M0 117.78 L4.03 117.78 L27.06 92.44 L4.03 67.09 L0 67.09 L23.03 92.44 L0 117.78 Z" class="st1"/>
                                            </g>
                                            <g id="group84-18" transform="translate(51.812,-0.670085)" v:mID="84" v:groupContext="group">
                                                           <title>Sheet.84</title>
                                                           <g id="shape85-19" v:mID="85" v:groupContext="shape">
                                                                          <title>Sheet.85</title>
                                                                          <path d="M39.2 98.18 C39.2 109.01 30.42 117.78 19.6 117.78 C8.77 117.78 0 109.01 0 98.18 C0 87.36 8.78 78.58
                                                                                                                      19.6 78.58 C30.42 78.58 39.2 87.36 39.2 98.18 Z" class="st2"/>
                                                           </g>
                                                           <g id="shape86-21" v:mID="86" v:groupContext="shape" transform="translate(10.1179,-9.84601)">
                                                                          <title>Sheet.86</title>
                                                                          <path d="M9.81 100.4 L14.88 112.92 L7.22 106.88 L9.81 100.4 ZM18.81 115.8 L11.02 97.03 C10.8 96.49 10.35 96.2
                                                                                                                      9.81 96.2 C9.28 96.2 8.79 96.49 8.57 97.03 L0 117.62 L2.93 117.62 L6.32 109.13 L16.43 117.3 C16.84
                                                                                                                      117.63 17.13 117.78 17.52 117.78 C18.28 117.78 18.95 117.21 18.95 116.38 C18.95 116.24 18.9 116.03
                                                                                                                      18.81 115.8 L18.81 115.8 Z" class="st3"/>
                                                           </g>
                                            </g>
                              </g>
               </g>
</svg>